<?xml version="1.0" standalone="no"?><!DOCTYPE svg PUBLIC "-//W3C//DTD SVG 1.1//EN" "http://www.w3.org/Graphics/SVG/1.1/DTD/svg11.dtd"><svg t="1667981704133" class="icon" viewBox="0 0 1025 1024" version="1.1" xmlns="http://www.w3.org/2000/svg" p-id="3211" xmlns:xlink="http://www.w3.org/1999/xlink" width="200.1953125" height="200"><path d="M921.344 177.3568H500.736L385.5872 51.2H102.656a104.6016 104.6016 0 0 0-102.4 105.5232v710.5024a104.6016 104.6016 0 0 0 102.4 105.5232h818.688a104.6016 104.6016 0 0 0 102.4-105.5232V282.8288a104.6016 104.6016 0 0 0-102.4-105.472z m-212.7872 455.68h-157.7472v162.2016a37.5808 37.5808 0 1 1-75.1104 0v-162.2016H317.952a38.6048 38.6048 0 0 1 0-77.2096h157.7472V393.6256a37.5808 37.5808 0 1 1 75.1104 0v162.2016h157.696a38.6048 38.6048 0 0 1 0 77.2096z" fill="#8a8a8a" p-id="3212"></path></svg>